<svg id="Icons" height="30" viewBox="0 0 74 74" width="40"
    xmlns="http://www.w3.org/2000/svg">
    <path d="m54.807 72h-35.614a3.648 3.648 0 0 1 -3.629-3.393l-3.372-50.04h49.616l-3.372 50.04a3.648 3.648 0 0 1 -3.629 3.393zm-40.475-51.433 3.228 47.9a1.642 1.642 0 0 0 1.633 1.533h35.614a1.642 1.642 0 0 0 1.633-1.528l3.228-47.9z"/>
    <path d="m64.035 20.567h-54.07a2.321 2.321 0 0 1 -2.319-2.318v-5.935a2.321 2.321 0 0 1 2.319-2.319h54.07a2.321 2.321 0 0 1 2.319 2.319v5.935a2.321 2.321 0 0 1 -2.319 2.318zm-54.07-8.567a.319.319 0 0 0 -.319.319v5.935a.319.319 0 0 0 .319.318h54.07a.319.319 0 0 0 .319-.318v-5.94a.319.319 0 0 0 -.319-.314z"/>
    <path d="m37 57.025a1 1 0 0 1 -1-1v-21.483a1 1 0 0 1 2 0v21.483a1 1 0 0 1 -1 1z"/>
    <path d="m47.413 57.025q-.034 0-.069 0a1 1 0 0 1 -.93-1.065l1.458-21.483a1 1 0 1 1 1.995.136l-1.458 21.48a1 1 0 0 1 -.996.932z"/>
    <path d="m26.587 57.025a1 1 0 0 1 -1-.932l-1.454-21.483a1 1 0 0 1 .93-1.066.99.99 0 0 1 1.065.93l1.458 21.483a1 1 0 0 1 -.93 1.065q-.035.003-.069.003z"/>
    <path d="m47.644 12h-21.288v-7.187a2.817 2.817 0 0 1 2.814-2.813h15.66a2.817 2.817 0 0 1 2.814 2.813zm-19.288-2h17.288v-5.187a.815.815 0 0 0 -.814-.813h-15.66a.815.815 0 0 0 -.814.813z"/>
</svg>